<?xml version="1.0" standalone="no"?><!-- Generator: Gravit.io --><svg xmlns="http://www.w3.org/2000/svg" xmlns:xlink="http://www.w3.org/1999/xlink" style="isolation:isolate" viewBox="0 0 1366 800" width="1366" height="800"><defs><clipPath id="_clipPath_69WWfkepHmYZ5vZgmShK0WxpE3KSZmPt"><rect width="1366" height="800"/></clipPath></defs><g clip-path="url(#_clipPath_69WWfkepHmYZ5vZgmShK0WxpE3KSZmPt)"><g id="Group"><path d="M 160 122.603 L 271.627 122.603 C 271.627 122.603 271.627 122.603 271.627 122.603 L 271.627 187.781 C 271.627 187.781 271.627 187.781 271.627 187.781 L 160 187.781 C 160 187.781 160 187.781 160 187.781 L 160 122.603 C 160 122.603 160 122.603 160 122.603 Z" style="stroke:none;fill:#C3CFD9;stroke-miterlimit:10;"/><rect x="160" y="187.781" width="111.627" height="51.974" transform="matrix(1,0,0,1,0,0)" fill="rgb(218,223,227)"/><rect x="172.157" y="202.178" width="78.47" height="9.947" transform="matrix(1,0,0,1,0,0)" fill="rgb(172,172,172)"/><rect x="172.157" y="218.756" width="46.419" height="5.526" transform="matrix(1,0,0,1,0,0)" fill="rgb(172,172,172)"/></g><g id="Group"><rect x="542.404" y="122.603" width="111.627" height="65.178" transform="matrix(1,0,0,1,0,0)" fill="rgb(195,207,217)"/><rect x="542.404" y="187.781" width="111.627" height="51.974" transform="matrix(1,0,0,1,0,0)" fill="rgb(218,223,227)"/><rect x="554.561" y="202.178" width="78.47" height="9.947" transform="matrix(1,0,0,1,0,0)" fill="rgb(172,172,172)"/><rect x="554.561" y="218.756" width="46.419" height="5.526" transform="matrix(1,0,0,1,0,0)" fill="rgb(172,172,172)"/></g><g id="Group"><rect x="254.496" y="343.645" width="111.627" height="65.178" transform="matrix(1,0,0,1,0,0)" fill="rgb(195,207,217)"/><rect x="254.496" y="408.824" width="111.627" height="51.974" transform="matrix(1,0,0,1,0,0)" fill="rgb(218,223,227)"/><rect x="266.653" y="423.221" width="78.47" height="9.947" transform="matrix(1,0,0,1,0,0)" fill="rgb(172,172,172)"/><rect x="266.653" y="439.799" width="46.419" height="5.526" transform="matrix(1,0,0,1,0,0)" fill="rgb(172,172,172)"/></g><g id="Group"><rect x="348.991" y="122.603" width="111.627" height="65.178" transform="matrix(1,0,0,1,0,0)" fill="rgb(195,207,217)"/><rect x="348.991" y="187.781" width="111.627" height="51.974" transform="matrix(1,0,0,1,0,0)" fill="rgb(218,223,227)"/><rect x="361.149" y="202.178" width="78.47" height="9.947" transform="matrix(1,0,0,1,0,0)" fill="rgb(172,172,172)"/><rect x="361.149" y="218.756" width="46.419" height="5.526" transform="matrix(1,0,0,1,0,0)" fill="rgb(172,172,172)"/></g><g id="Group"><rect x="729.185" y="122.603" width="111.627" height="65.178" transform="matrix(1,0,0,1,0,0)" fill="rgb(195,207,217)"/><rect x="729.185" y="187.781" width="111.627" height="51.974" transform="matrix(1,0,0,1,0,0)" fill="rgb(218,223,227)"/><rect x="741.342" y="202.178" width="78.47" height="9.947" transform="matrix(1,0,0,1,0,0)" fill="rgb(172,172,172)"/><rect x="741.342" y="218.756" width="46.419" height="5.526" transform="matrix(1,0,0,1,0,0)" fill="rgb(172,172,172)"/></g><line x1="271.627" y1="184.494" x2="348.991" y2="184.494" vector-effect="non-scaling-stroke" stroke-width="1" stroke="rgb(0,0,0)" stroke-linejoin="miter" stroke-linecap="square" stroke-miterlimit="3"/><line x1="364.506" y1="409.958" x2="638.557" y2="409.958" vector-effect="non-scaling-stroke" stroke-width="1" stroke="rgb(0,0,0)" stroke-linejoin="miter" stroke-linecap="square" stroke-miterlimit="3"/><line x1="654.03" y1="184.494" x2="729.185" y2="184.494" vector-effect="non-scaling-stroke" stroke-width="1" stroke="rgb(0,0,0)" stroke-linejoin="miter" stroke-linecap="square" stroke-miterlimit="3"/><line x1="311.414" y1="184.494" x2="311.414" y2="345.856" vector-effect="non-scaling-stroke" stroke-width="1" stroke="rgb(0,0,0)" stroke-linejoin="miter" stroke-linecap="square" stroke-miterlimit="3"/><g id="Group"><rect x="636.347" y="343.645" width="111.627" height="65.178" transform="matrix(1,0,0,1,0,0)" fill="rgb(195,207,217)"/><rect x="636.347" y="408.824" width="111.627" height="51.974" transform="matrix(1,0,0,1,0,0)" fill="rgb(218,223,227)"/><rect x="648.504" y="423.221" width="78.47" height="9.947" transform="matrix(1,0,0,1,0,0)" fill="rgb(172,172,172)"/><rect x="648.504" y="439.799" width="46.419" height="5.526" transform="matrix(1,0,0,1,0,0)" fill="rgb(172,172,172)"/></g><line x1="693.265" y1="184.494" x2="693.265" y2="345.856" vector-effect="non-scaling-stroke" stroke-width="1" stroke="rgb(0,0,0)" stroke-linejoin="miter" stroke-linecap="square" stroke-miterlimit="3"/><rect x="1009" y="308" width="288.199" height="405.245" transform="matrix(1,0,0,1,0,0)" fill="rgb(236,236,236)" vector-effect="non-scaling-stroke" stroke-width="1" stroke="rgb(232,232,232)" stroke-linejoin="round" stroke-linecap="butt" stroke-miterlimit="1.414"/><rect x="1113.15" y="336.736" width="79.899" height="79.899" transform="matrix(1,0,0,1,0,0)" fill="rgb(195,207,217)"/><rect x="1033.251" y="655.037" width="243.211" height="34.586" transform="matrix(1,0,0,1,0,0)" fill="rgb(195,207,217)"/><rect x="1033.251" y="462.73" width="243.211" height="24.315" transform="matrix(1,0,0,1,0,0)" fill="rgb(195,207,217)"/><rect x="1033.251" y="445.046" width="119.849" height="11.052" transform="matrix(1,0,0,1,0,0)" fill="rgb(195,207,217)"/><rect x="1033.251" y="517.991" width="243.211" height="24.315" transform="matrix(1,0,0,1,0,0)" fill="rgb(195,207,217)"/><rect x="1033.251" y="500.307" width="119.849" height="11.052" transform="matrix(1,0,0,1,0,0)" fill="rgb(195,207,217)"/><rect x="1033.251" y="573.251" width="243.211" height="24.315" transform="matrix(1,0,0,1,0,0)" fill="rgb(195,207,217)"/><rect x="1033.251" y="555.568" width="119.849" height="11.052" transform="matrix(1,0,0,1,0,0)" fill="rgb(195,207,217)"/><path d=" M 1311.733 308 C 1311.733 299.978 1305.221 293.466 1297.199 293.466 C 1289.178 293.466 1282.665 299.978 1282.665 308 C 1282.665 316.022 1289.178 322.534 1297.199 322.534 C 1305.221 322.534 1311.733 316.022 1311.733 308 Z " fill="rgb(195,207,217)"/><path d=" M 1347.134 45.401 C 1347.134 31.382 1335.752 20 1321.733 20 C 1307.714 20 1296.333 31.382 1296.333 45.401 C 1296.333 59.42 1307.714 70.802 1321.733 70.802 C 1335.752 70.802 1347.134 59.42 1347.134 45.401 Z " fill="rgb(195,207,217)"/></g></svg>